<?xml version="1.0" encoding="UTF-8" standalone="no"?>
<!-- Created with Inkscape (http://www.inkscape.org/) -->

<svg
   width="251.17101"
   height="50.007"
   viewBox="0 0 66.45566 13.231019"
   version="1.1"
   id="svg5"
   xml:space="preserve"
   inkscape:version="1.2.2 (732a01da63, 2022-12-09)"
   sodipodi:docname="logo.svg"
   xmlns:inkscape="http://www.inkscape.org/namespaces/inkscape"
   xmlns:sodipodi="http://sodipodi.sourceforge.net/DTD/sodipodi-0.dtd"
   xmlns="http://www.w3.org/2000/svg"
   xmlns:svg="http://www.w3.org/2000/svg"><sodipodi:namedview
     id="namedview7"
     pagecolor="#505050"
     bordercolor="#eeeeee"
     borderopacity="1"
     inkscape:showpageshadow="0"
     inkscape:pageopacity="0"
     inkscape:pagecheckerboard="0"
     inkscape:deskcolor="#505050"
     inkscape:document-units="px"
     showgrid="false"
     inkscape:zoom="6.0364198"
     inkscape:cx="61.708763"
     inkscape:cy="15.903466"
     inkscape:window-width="1920"
     inkscape:window-height="1027"
     inkscape:window-x="-8"
     inkscape:window-y="476"
     inkscape:window-maximized="1"
     inkscape:current-layer="g1354" /><defs
     id="defs2"><clipPath
       clipPathUnits="userSpaceOnUse"
       id="clipPath1690"><path
         style="fill:#9b0000;stroke-width:0"
         id="path1692"
         sodipodi:type="arc"
         sodipodi:cx="108"
         sodipodi:cy="156.3896"
         sodipodi:rx="59.610394"
         sodipodi:ry="59.610394"
         sodipodi:start="0"
         sodipodi:end="6.2822766"
         sodipodi:arc-type="slice"
         d="m 167.61039,156.3896 a 59.610394,59.610394 0 0 1 -59.59685,59.61039 59.610394,59.610394 0 0 1 -59.623927,-59.5833 59.610394,59.610394 0 0 1 59.569757,-59.637467 59.610394,59.610394 0 0 1 59.651,59.556207 L 108,156.3896 Z" /></clipPath><clipPath
       clipPathUnits="userSpaceOnUse"
       id="clipPath1696"><rect
         style="fill:#9b0000;fill-opacity:0.34632;stroke-width:0"
         id="rect1698"
         width="127.34085"
         height="60.311684"
         x="-5.2597389"
         y="-108.27381" /></clipPath></defs><g
     inkscape:label="Layer 1"
     inkscape:groupmode="layer"
     id="layer1"><g
       id="g1354"
       transform="matrix(1.7913571,0,0,1.8148321,4.316914,-7.7905847)"
       style="stroke-width:0.554614"><text
         xml:space="preserve"
         style="font-style:italic;font-variant:normal;font-weight:normal;font-stretch:normal;font-size:4.75437px;font-family:'Futura Md BT';-inkscape-font-specification:'Futura Md BT Italic';text-align:center;text-anchor:middle;fill:#000000;fill-opacity:0.992157;stroke-width:0"
         x="-2.3680601"
         y="-8.9929218"
         id="text1836"><tspan
           sodipodi:role="line"
           style="font-style:italic;font-variant:normal;font-weight:normal;font-stretch:normal;font-family:'Futura Md BT';-inkscape-font-specification:'Futura Md BT Italic';text-align:start;text-anchor:start;fill:#000000;stroke-width:0"
           x="-2.3680601"
           y="-8.9929218"
           id="tspan1834">SHOAIB AKHTAR</tspan></text><rect
         style="fill:none;fill-opacity:0.992157;stroke:#000000;stroke-width:0.63098877;stroke-linecap:round;stroke-linejoin:round;stroke-dasharray:none;stroke-opacity:1"
         id="rect1010"
         width="36.803028"
         height="6.9914675"
         x="-2.2623999"
         y="4.4429312"
         ry="0.40986687"
         rx="0.41523799" /><g
         id="g990"><path
           d="m -1.5063777,9.0743352 0.3737566,-0.3087555 q 0.13928821,0.2785764 0.29946963,0.4039358 0.16018142,0.1230379 0.37607811,0.1230379 0.2692905,0 0.43643633,-0.15786 0.16714583,-0.1578599 0.16714583,-0.4109001 0,-0.1787532 -0.08821586,-0.3017911 Q -0.02992291,8.2966428 -0.25278401,8.1666405 -0.29921341,8.1387825 -0.38975073,8.0877105 -0.77047179,7.8764567 -0.90279557,7.7302041 -0.99797587,7.625738 -1.0467267,7.4887712 q -0.046429,-0.1369667 -0.046429,-0.2971481 0,-0.4480437 0.28786227,-0.7289415 0.28786226,-0.2832193 0.75215622,-0.2832193 0.31339843,0 0.54786688,0.1276808 0.23678992,0.1276808 0.39000693,0.380721 L 0.55973043,6.9873339 Q 0.44597841,6.8016163 0.30669022,6.7110789 0.16740203,6.6205416 -0.00438674,6.6205416 q -0.25071874,0 -0.40625722,0.1462526 -0.15553848,0.1462526 -0.15553848,0.3783996 0,0.2785764 0.44804368,0.5200092 0.11143055,0.058037 0.16946729,0.092859 0.34357754,0.1996464 0.4851872,0.4155431 0.14393113,0.2135753 0.14393113,0.5246522 0,0.4828657 -0.31107696,0.7684065 -0.31107696,0.2832194 -0.84501502,0.2832194 -0.36214929,0 -0.61983248,-0.1671459 -0.2553616,-0.1671458 -0.4109001,-0.5084021 z"
           style="font-style:italic;font-size:4.75437px;font-family:'Futura Md BT';-inkscape-font-specification:'Futura Md BT Italic';text-align:start;text-anchor:start;fill-opacity:0.992157;stroke-width:0"
           id="path1904" /><path
           d="M 1.170277,9.6593456 1.6159992,6.2607138 H 2.1499373 L 1.9781485,7.5491296 H 3.6217491 L 3.788895,6.2607138 H 4.327476 L 3.8747894,9.6593456 H 3.3431728 L 3.556748,8.0343167 H 1.9154688 L 1.7018936,9.6593456 Z"
           style="font-style:italic;font-size:4.75437px;font-family:'Futura Md BT';-inkscape-font-specification:'Futura Md BT Italic';text-align:start;text-anchor:start;fill-opacity:0.992157;stroke-width:0"
           id="path1906" /><path
           d="m 7.7678942,7.8485992 q 0,-0.5362596 -0.3273273,-0.8635868 -0.3250058,-0.3296487 -0.8612653,-0.3296487 -0.2646476,0 -0.5060804,0.099823 -0.2391114,0.099823 -0.4155431,0.285541 -0.2042894,0.2089322 -0.311077,0.4759013 -0.1067876,0.266969 -0.1067876,0.5594742 0,0.5316166 0.3203628,0.8635868 0.3226844,0.3296487 0.8380507,0.3296487 0.5826889,0 0.9750173,-0.4062572 Q 7.7678942,8.4545028 7.7678942,7.8485992 Z M 6.6071592,6.1794624 q 0.775371,0 1.235022,0.4526866 0.459651,0.4503651 0.459651,1.2071643 0,0.4062572 -0.1508955,0.766085 Q 8.0023626,8.9629047 7.7261077,9.2275522 7.4591387,9.478271 7.1085967,9.6129162 6.7580548,9.74524 6.3610834,9.74524 5.6205346,9.74524 5.1655265,9.2902319 4.7105184,8.8352238 4.7105184,8.094675 q 0,-0.4132217 0.1462526,-0.7730495 Q 5.0030236,6.9594762 5.276957,6.6971501 5.5369616,6.4487529 5.8828607,6.3141076 6.2287597,6.1794624 6.6071592,6.1794624 Z"
           style="font-style:italic;font-size:4.75437px;font-family:'Futura Md BT';-inkscape-font-specification:'Futura Md BT Italic';text-align:start;text-anchor:start;fill-opacity:0.992157;stroke-width:0"
           id="path1908" /><path
           d="M 8.2670096,9.6593456 10.235616,6.1260685 11.477602,9.6593456 H 10.925093 L 10.648838,8.8561171 H 9.2954208 L 8.8473771,9.6593456 Z M 9.508996,8.4034304 h 0.993589 L 10.240259,7.5630584 Q 10.221689,7.5027004 10.200799,7.402877 10.179909,7.303054 10.149729,7.1405509 10.098659,7.2612673 10.047584,7.3703764 9.998833,7.477164 9.950082,7.5723442 Z"
           style="font-style:italic;font-size:4.75437px;font-family:'Futura Md BT';-inkscape-font-specification:'Futura Md BT Italic';text-align:start;text-anchor:start;fill-opacity:0.992157;stroke-width:0"
           id="path1910" /><path
           d="M 11.658678,9.6593456 12.1044,6.2607138 h 0.543224 l -0.452687,3.3986318 z"
           style="font-style:italic;font-size:4.75437px;font-family:'Futura Md BT';-inkscape-font-specification:'Futura Md BT Italic';text-align:start;text-anchor:start;fill-opacity:0.992157;stroke-width:0"
           id="path1912" /><path
           d="m 13.564604,9.1927302 h 0.341257 q 0.232147,0 0.345899,-0.01625 0.116073,-0.01625 0.201967,-0.053394 0.136967,-0.06268 0.215897,-0.1950035 0.07893,-0.1323238 0.07893,-0.3041125 0,-0.266969 -0.167146,-0.3760781 Q 14.416584,8.138783 13.947647,8.138783 h -0.246076 z m 0.322685,-2.4723654 -0.123038,0.9564456 h 0.195003 q 0.482866,0 0.666262,-0.118395 0.183396,-0.1183949 0.183396,-0.3992928 0,-0.2414328 -0.150895,-0.3389346 -0.150896,-0.099823 -0.585011,-0.099823 z m -0.912338,2.9389808 0.445722,-3.3986318 h 0.733585 q 0.399293,0 0.580367,0.046429 0.183396,0.044108 0.313399,0.153217 0.130002,0.1114306 0.197325,0.2692905 0.06732,0.1555385 0.06732,0.3435775 0,0.3226843 -0.164824,0.538581 -0.164824,0.2135753 -0.461973,0.2739335 0.287863,0.081251 0.44108,0.2739334 0.153217,0.1903605 0.153217,0.4735799 0,0.2646475 -0.106788,0.4805442 -0.104466,0.2135752 -0.301791,0.350542 -0.155538,0.1067876 -0.385364,0.1508955 -0.227504,0.044108 -0.766085,0.044108 z"
           style="font-style:italic;font-size:4.75437px;font-family:'Futura Md BT';-inkscape-font-specification:'Futura Md BT Italic';text-align:start;text-anchor:start;fill-opacity:0.992157;stroke-width:0"
           id="path1914" /></g><g
         id="g998"><path
           d="m 16.682339,9.6593456 1.968606,-3.5332771 1.241986,3.5332771 H 19.340422 L 19.064167,8.8561171 H 17.71075 l -0.448044,0.8032285 z m 1.241986,-1.2559152 h 0.993589 l -0.262326,-0.840372 q -0.01857,-0.060358 -0.03946,-0.1601814 -0.02089,-0.099823 -0.05107,-0.2623261 -0.05107,0.1207164 -0.102145,0.2298255 -0.04875,0.1067876 -0.0975,0.2019678 z"
           style="font-style:italic;font-size:4.75437px;font-family:'Futura Md BT';-inkscape-font-specification:'Futura Md BT Italic';text-align:start;text-anchor:start;fill-opacity:0.992157;stroke-width:0"
           id="path1916" /><path
           d="m 20.069362,9.6593456 0.445722,-3.3986318 h 0.533938 l -0.181074,1.3975248 1.353417,-1.3975248 h 0.661618 l -1.592528,1.6064571 1.378953,1.7921747 H 22.017075 L 20.809911,8.0575314 20.600979,9.6593456 Z"
           style="font-style:italic;font-size:4.75437px;font-family:'Futura Md BT';-inkscape-font-specification:'Futura Md BT Italic';text-align:start;text-anchor:start;fill-opacity:0.992157;stroke-width:0"
           id="path1918" /><path
           d="m 22.931735,9.6593456 0.445723,-3.3986318 h 0.533938 l -0.171789,1.2884158 h 1.643601 l 0.167145,-1.2884158 h 0.538581 l -0.452686,3.3986318 h -0.531617 l 0.213575,-1.6250289 h -1.641279 l -0.213575,1.6250289 z"
           style="font-style:italic;font-size:4.75437px;font-family:'Futura Md BT';-inkscape-font-specification:'Futura Md BT Italic';text-align:start;text-anchor:start;fill-opacity:0.992157;stroke-width:0"
           id="path1920" /><path
           d="m 26.943234,9.6593456 0.385364,-2.9088017 h -0.916981 l 0.065,-0.4898301 h 2.32147 l -0.06732,0.4898301 h -0.865908 l -0.385364,2.9088017 z"
           style="font-style:italic;font-size:4.75437px;font-family:'Futura Md BT';-inkscape-font-specification:'Futura Md BT Italic';text-align:start;text-anchor:start;fill-opacity:0.992157;stroke-width:0"
           id="path1922" /><path
           d="m 28.05522,9.6593456 1.968606,-3.5332771 1.241986,3.5332771 H 30.713303 L 30.437048,8.8561171 h -1.353417 l -0.448044,0.8032285 z m 1.241986,-1.2559152 h 0.993589 l -0.262326,-0.840372 q -0.01857,-0.060358 -0.03946,-0.1601814 -0.02089,-0.099823 -0.05107,-0.2623261 -0.05107,0.1207164 -0.102145,0.2298255 -0.04875,0.1067876 -0.0975,0.2019678 z"
           style="font-style:italic;font-size:4.75437px;font-family:'Futura Md BT';-inkscape-font-specification:'Futura Md BT Italic';text-align:start;text-anchor:start;fill-opacity:0.992157;stroke-width:0"
           id="path1924" /><path
           d="m 31.969217,9.6593456 h -0.526974 l 0.445722,-3.3986318 h 0.612868 q 0.406257,0 0.585011,0.046429 0.178753,0.046429 0.318041,0.1578599 0.155538,0.1207165 0.23679,0.3017911 0.08357,0.1810747 0.08357,0.4016143 0,0.420186 -0.229826,0.6848336 -0.229825,0.2646476 -0.650011,0.3319702 l 0.940195,1.4741333 H 33.185667 L 32.287258,8.203784 H 32.16422 Z m 0.246075,-1.8873549 h 0.106788 q 0.501438,0 0.682512,-0.1253594 0.181075,-0.1253594 0.181075,-0.4317934 0,-0.2600046 -0.153217,-0.3644708 Q 32.881554,6.745901 32.440475,6.745901 h -0.08589 z"
           style="font-style:italic;font-size:4.75437px;font-family:'Futura Md BT';-inkscape-font-specification:'Futura Md BT Italic';text-align:start;text-anchor:start;fill-opacity:0.992157;stroke-width:0"
           id="path1926" /></g><rect
         style="fill:#d3d3d3;fill-opacity:1;stroke:none;stroke-width:0.293484;stroke-linecap:round;stroke-linejoin:round;stroke-dasharray:none;stroke-opacity:1"
         id="rect2082"
         width="16.819035"
         height="1.0704994"
         x="-1.5063716"
         y="10.899149"
         rx="0.41523799"
         ry="0.40986684" /><rect
         style="fill:#d3d3d3;fill-opacity:1;stroke:none;stroke-width:0.293483;stroke-linecap:round;stroke-linejoin:round;stroke-dasharray:none;stroke-opacity:1"
         id="rect2261"
         width="17.102324"
         height="1.1309386"
         x="16.68231"
         y="3.9201915"
         rx="0.41523799"
         ry="0.40986687" /></g></g></svg>
